PathFileType	4	(X/Y/Z)	39_2_10_p0_0-795_filt_butterworth.trc
DataRate	CameraRate	NumFrames	NumMarkers	Units	OrigDataRate	OrigDataStartFrame	OrigNumFrames
59.0	59.0	6	27	m	59.0	99	795
Frame#	Time	RHip			RKnee			RAnkle			RBigToe			RSmallToe			RHeel			LHip			LKnee			LAnkle			LBigToe			LSmallToe			LHeel			Neck			Head			Nose			RShoulder			RElbow			RWrist			RThumb			RIndex			RPinky			LShoulder			LElbow			LWrist			LThumb			LIndex			LPinky			
		X1	Y1	Z1	X2	Y2	Z2	X3	Y3	Z3	X4	Y4	Z4	X5	Y5	Z5	X6	Y6	Z6	X7	Y7	Z7	X8	Y8	Z8	X9	Y9	Z9	X10	Y10	Z10	X11	Y11	Z11	X12	Y12	Z12	X13	Y13	Z13	X14	Y14	Z14	X15	Y15	Z15	X16	Y16	Z16	X17	Y17	Z17	X18	Y18	Z18	X19	Y19	Z19	X20	Y20	Z20	X21	Y21	Z21	X22	Y22	Z22	X23	Y23	Z23	X24	Y24	Z24	X25	Y25	Z25	X26	Y26	Z26	X27	Y27	Z27	
99	1.6779661016949152	0.3165081924653276	0.6933121123604132	0.5792924539534444	0.26790484855534163	0.7236965495888776	0.9434174739170798	0.2314586712634107	0.813876052370832	1.3168186292087616	0.21006804863084566	0.6534620767804141	1.3465909769605866	0.260992378344078	0.700150256609028	1.368885468871049	0.20643618846861095	0.9197781829733295	1.3879295822654947	0.07994760038788114	0.7035699761442146	0.5766014025960502	0.09018439979526202	0.7579148048210402	0.9546774584968841	0.037842042075661185	0.8176627580840267	1.3244111326896815	0.060325559248185744	0.6220641754570565	1.3122804017822836	0.008915024710141984	0.6811565085531083	1.3310973477304413	0.04505860602637805	0.8661705449444287	1.375613013624555	0.22362357885212295	0.5926324309972365	-0.0016981985885339396	0.24876476578761725	0.5241708881044561	-0.2553396783118487	0.22826088224686852	0.4543495187948071	-0.11226535718809838	0.37312215354997696	0.5872395889733645	0.08399379543363998	0.42026399971178446	0.5317452123639578	0.3329134061578832	0.29135963115414126	0.49190245829000606	0.5368782873211537	0.20407335580176758	0.47990795080015847	0.5916806179693853	0.1897682190323256	0.4908089385936184	0.6081954194682849	0.1998256085731368	0.5005747812224719	0.6046490474983974	0.05994469527804107	0.5825892862911531	0.07370987665995388	0.00012383703963199784	0.6085071735482616	0.33523598811532684	0.13877217109782186	0.48948357746224963	0.5133802824965309	0.23019045826756915	0.4570490546671712	0.5508941729489337	0.24812696663784364	0.4450155836898151	0.5895308229458573	0.21809604492023693	0.5176736177220798	0.6196168752928999
100	1.694915254237288	0.31650425271497745	0.6932615911550679	0.581613834915329	0.26761153465126264	0.7222081094512188	0.9444967151456245	0.23091620255049022	0.8136900000069661	1.3168131062654385	0.2100491484697808	0.6535228801106738	1.3466491062508987	0.26094994450600734	0.7002111644608249	1.3689443086694448	0.20646646627262344	0.9197810425539223	1.3879939241898656	0.07921790076456914	0.704015377534969	0.5787338793622502	0.08992835506963784	0.7581734941680521	0.9561290380612648	0.03750994347853756	0.8175001097541945	1.3246668137476973	0.06034237235289154	0.6222475751487018	1.312475926862544	0.008907366375430584	0.6810022820935995	1.3310512198412274	0.044976901711922174	0.8658326381184791	1.3755019843313712	0.223690269476102	0.5926067033169468	-0.0017099245813789552	0.2489328832210559	0.5241998153624343	-0.25530048951930256	0.22843186738302868	0.454638911652901	-0.11261100476999533	0.37215001679127496	0.5868215444263557	0.08404932054511799	0.42025366329077407	0.5317258996302362	0.3330552729580779	0.2913973332405917	0.49176422286466215	0.537786974307068	0.20230968905815933	0.48038370529142627	0.5915054598784629	0.18977380011474254	0.49063649741783233	0.60820506678812	0.20138753089413064	0.49562845367892616	0.6048333224113177	0.059950088796402186	0.5830025266813328	0.07461408121197521	-0.0006134262250917512	0.6086803065517801	0.3361267682768865	0.13919217304647677	0.4849957842244552	0.5124726978073616	0.22969002718320575	0.45546317027683336	0.5496096061307458	0.24730694727586372	0.44222513354026277	0.5890444459232584	0.21807019996568866	0.5175718311606338	0.6196340405447582
101	1.7118644067796611	0.3165204212425062	0.6932423469003608	0.5837067752213495	0.26683476437305537	0.7183454632141688	0.9444906900329583	0.23065350450144767	0.8140000162315353	1.317010694158073	0.21002944215033711	0.6536544148341407	1.3467809514152325	0.2609043238862619	0.700413071877139	1.369072372301011	0.2064711909975474	0.9197814779881127	1.3880277565261478	0.07871949295300129	0.7045855086937729	0.582014906818664	0.0896562389583023	0.7582386790633534	0.9571949296185027	0.037342006811838066	0.8172084638518982	1.324792141627276	0.060342212035636125	0.6223786481754328	1.3125820095568057	0.008893615520275431	0.6809436110061268	1.3310336221647139	0.04487740729429487	0.8653098716854006	1.3753771023929178	0.22336173322434538	0.592403312318329	-0.0017475845562139802	0.2490404429142652	0.5243120732343391	-0.2549473884967202	0.228464609020475	0.45486329095840267	-0.11260840696486811	0.37088178219210316	0.5865741114914571	0.08408424626500416	0.42024218977734235	0.5316836607955209	0.33305582977240794	0.29146701803842734	0.4917773512710835	0.5385614070156334	0.20092198652265836	0.48093837530284755	0.5912919316480737	0.18965855149361238	0.4908359313941292	0.608278816618931	0.20249649570461953	0.4921474337176821	0.6050118047661448	0.05995417306943782	0.583542139191166	0.07578989592256673	-0.0021887929092298396	0.6101631182150227	0.3372424185626081	0.14085810657106973	0.4815877357706703	0.5118071437406182	0.22945774496345656	0.45528157332648234	0.5493275376262009	0.24638242975144564	0.43850597121862905	0.5887880657533864	0.21812346264199003	0.5175955350493794	0.6196731733553191
102	1.728813559322034	0.3165323360254799	0.6933030606053927	0.584183765820879	0.26580993939402037	0.7133312542112611	0.9442119712416329	0.23061663385654996	0.814186106201252	1.3171221183932453	0.21003242188912097	0.6538434113512184	1.3468929928600923	0.2608780740092626	0.7006369130074936	1.3691806047692687	0.20644958080401984	0.9197791932040451	1.3880207407337333	0.07859794832486428	0.7050363759046575	0.5841487929562015	0.08953719867709242	0.7580166072886282	0.957536035541431	0.0373214669612839	0.817033787626071	1.3248131884726564	0.06033603872226399	0.6224220966309135	1.312594062590286	0.008893589776469802	0.6809386608521873	1.3310351985664153	0.04481288476197273	0.8648795974932452	1.3753610616475598	0.22230919307411445	0.5918590112654534	-0.0018182352158577224	0.24875666116427264	0.5245855539038109	-0.25410200587778636	0.22807398479976757	0.4548309109307827	-0.11251119295748224	0.36988366919287957	0.5863420328200543	0.08407293902988924	0.4201983953596755	0.5315327132597367	0.3326434649355005	0.2915829476012925	0.49209377196392456	0.5396571094634247	0.20038960263927644	0.4811665261248498	0.5912821590477167	0.18955971945545497	0.49099761550455934	0.6083196666726404	0.20244851492123486	0.4921419892423173	0.6050947565165804	0.05994093070114625	0.5839121484870784	0.07676711988411569	-0.004122277730472142	0.6135697957626207	0.33822188931900027	0.142782616655775	0.4804300459557852	0.5115734761635882	0.2297144499030898	0.4556535965464553	0.5496306105505184	0.24575296156336313	0.43572685999430527	0.5888302406081017	0.21811615420040115	0.5178833630457276	0.6197238411454458
103	1.7457627118644068	0.3165036602113862	0.6935787739921694	0.5833004867019715	0.2650278287807277	0.7095732252645138	0.9439714594313654	0.23062724726689887	0.8142094136632498	1.317138268284681	0.2100512514427042	0.6540093935415643	1.3469206283132924	0.26087268308826495	0.7007876768249832	1.3692126132379439	0.2064183109977013	0.9197765296450064	1.388047961962991	0.07863019818259866	0.7053836730212906	0.583781222645548	0.08961655674221507	0.7575801823197206	0.9573999440727957	0.03734900530931811	0.8170127351119036	1.3247958081988216	0.06035091395748314	0.6224078613782682	1.3125295512801913	0.008924162540250193	0.6809437567962966	1.3310208704246804	0.04479630482013559	0.86485252595715	1.3755634007114392	0.22089229287163747	0.5910421971356303	-0.0019024794599054279	0.24764199518539154	0.5250027948686732	-0.25302069912149383	0.22711568695521606	0.45457200724514896	-0.11242292409545972	0.369470020355005	0.5862030532123833	0.08404591714339724	0.4201010368582032	0.53117443553488	0.3316116945633219	0.2917225336361493	0.49259948882455107	0.5410608449132855	0.20080751867587124	0.4801148061409388	0.5913150159256902	0.18948038966172331	0.491075933745556	0.6083216968146903	0.20125444773430415	0.495613687212878	0.6050563700183132	0.059916412960559495	0.58398344569027	0.077567651111055	-0.005736667645424261	0.6177439066663988	0.3387442860781186	0.1432083732665138	0.4808185211703524	0.5115946612728677	0.2305935382230904	0.4556282391948801	0.5499961028936529	0.24556899273550795	0.43470138580181394	0.5886929513231229	0.21768812644446947	0.5186337024398664	0.6198660425205763
104	1.7627118644067796	0.3164059699716769	0.6941424827268365	0.5823423999668886	0.26465955065356056	0.7079574141548839	0.9434453014594909	0.2305535673843934	0.8142683774338204	1.317168240836549	0.21006458635846986	0.6540865045523508	1.3468840681037255	0.26087053803495674	0.7008601014928313	1.3691991212722023	0.20639417161632018	0.9197900512699165	1.388277706177595	0.07857953510189093	0.7058141680260863	0.5819721761326482	0.08963617862447436	0.7575232838636824	0.9573004744653251	0.03737675770082795	0.8170439143887231	1.324769309696482	0.06038561676943368	0.622332278679068	1.3123974772105058	0.008979878160918359	0.6809291724175374	1.330944046217991	0.04479163903550043	0.8652228262733218	1.3759219032607761	0.21987079496154452	0.5902224657850931	-0.0019673293001495353	0.24564655887431822	0.5254364452353989	-0.25224785961663176	0.2258878859421267	0.4542403943087385	-0.11236047415516989	0.3694432629790648	0.5861475489100684	0.08403235593047303	0.41997465241971677	0.5306925158984793	0.3302325535735928	0.2918284362454473	0.49300681156618786	0.5421862960034393	0.202109801851572	0.4770561656183259	0.5910435625856996	0.18943608495337033	0.4911173188306964	0.6082962538110911	0.19967223451676802	0.5005376822958532	0.6049187501592281	0.05989103975176928	0.5838514019953382	0.07861681693219322	-0.007143084223631047	0.6205617811696391	0.3387953136465802	0.14168638029129588	0.4812476110620986	0.5116449694719729	0.2319473331420232	0.4541690366275509	0.5501998109545693	0.2456498095695183	0.4346568484293294	0.5880989947441978	0.21663914821554925	0.5195454781315596	0.6200729159752373
